# xmcd
#
# Track frame offsets:
#	150
#	13977
#	34135
#	51733
#	70763
#	92647
#	110258
#	124420
#	141664
#	159199
#	171640
#	183081
#	198668
#	216042
#	237139
#	253899
#	269786
#	286264
#
# Disc length: 4053 seconds
#
# Revision: 1
# Processed by: cddbd v1.5.2PL0 Copyright (c) Steve Scherf et al.
# Submitted via: audiograbber 1.83.01
#
DISCID=1f0fd312
DTITLE=Country-Made in Germany - CD 3 - Gunter Gabriel
DYEAR=1900
DGENRE=Country
TTITLE0=Hey, Boss, ich brauch mehr Geld
TTITLE1=Er ist ein Kerl (der 30-Tonner Diesel)
TTITLE2=Ich bin CB-Funker
TTITLE3=Intercity Linie Nr. 4
TTITLE4=Dieselknecht
TTITLE5=Ich schlaf nicht gern allein
TTITLE6=Jeder Mann braucht eine Frau
TTITLE7=Du bist das Gold in meinem Leben
TTITLE8=(Wir sind) die Fahrer
TTITLE9=König der Tramps
TTITLE10=Oh nur mit dir
TTITLE11=Dankwart und Leila
TTITLE12=Mein alter VW
TTITLE13=Ehrbares Mädchen
TTITLE14=Fahrer, du bist Deutschlands bester Mann
TTITLE15=Das wär mir nie passiert
TTITLE16=Willy Klein, der Fernsehmann
TTITLE17=Komm unter meiner Decke
EXTD=Readers Digest Edition
EXTT0=
EXTT1=
EXTT2=
EXTT3=
EXTT4=
EXTT5=
EXTT6=
EXTT7=
EXTT8=
EXTT9=
EXTT10=
EXTT11=
EXTT12=
EXTT13=
EXTT14=
EXTT15=
EXTT16=
EXTT17=
PLAYORDER=
